<svg width="21" height="21" viewBox="0 0 21 21" fill="none" xmlns="http://www.w3.org/2000/svg">
<path fill-rule="evenodd" clip-rule="evenodd" d="M17.9412 3.052C15.9665 1.085 13.3412 0.000875 10.5444 0C4.78116 0 0.0905589 4.66725 0.0879213 10.4055C0.0870421 12.2395 0.568851 14.0297 1.48411 15.6082L0 21L5.54256 19.5527C7.06975 20.3822 8.78949 20.8189 10.5391 20.8197H10.5435C16.3059 20.8197 20.9974 16.1516 21 10.4134C21.0018 7.6335 19.915 5.01813 17.9412 3.052ZM10.5444 19.0619H10.5409C8.98116 19.0619 7.45221 18.6445 6.11756 17.8561L5.80017 17.6689L2.51103 18.5273L3.38937 15.3352L3.18275 15.008C2.31233 13.6308 1.85338 12.0391 1.85426 10.4055C1.85602 5.63675 5.75533 1.757 10.5488 1.757C12.8699 1.757 15.0521 2.65825 16.6927 4.29275C18.3333 5.92812 19.2363 8.10075 19.2354 10.4116C19.2328 15.1821 15.3344 19.0619 10.5444 19.0619ZM15.3115 12.5842C15.0504 12.4539 13.7658 11.8247 13.5258 11.7381C13.2867 11.6515 13.1126 11.6077 12.9376 11.8676C12.7627 12.1275 12.2633 12.7137 12.1103 12.8879C11.9582 13.0611 11.8052 13.083 11.5441 12.9526C11.2829 12.8223 10.4407 12.5484 9.44275 11.662C8.6664 10.9725 8.14151 10.1211 7.98941 9.86038C7.8373 9.59962 7.97358 9.45963 8.1037 9.33012C8.22152 9.21375 8.36483 9.0265 8.49583 8.87425C8.62772 8.72375 8.6708 8.61525 8.75872 8.44112C8.84576 8.26788 8.80268 8.11563 8.73674 7.98525C8.6708 7.85575 8.14854 6.57562 7.93138 6.055C7.71949 5.5475 7.50408 5.61662 7.34319 5.60875C7.19108 5.60087 7.017 5.6 6.84203 5.6C6.66795 5.6 6.38484 5.66475 6.1457 5.9255C5.90655 6.18625 5.23132 6.81538 5.23132 8.09463C5.23132 9.37475 6.16768 10.6111 6.2978 10.7844C6.42792 10.9576 8.13975 13.5844 10.7607 14.7105C11.384 14.9783 11.8711 15.1384 12.2501 15.2582C12.8761 15.456 13.4458 15.428 13.896 15.3615C14.398 15.2871 15.4416 14.7324 15.6597 14.1251C15.8777 13.5179 15.8777 12.9964 15.8118 12.8888C15.7467 12.7794 15.5726 12.7146 15.3115 12.5842Z" fill="#5D673C"/>
</svg>
